<svg width="407" height="90" viewBox="0 0 407 90" fill="none" xmlns="http://www.w3.org/2000/svg">
<path d="M370.193 71.0672L378.693 19.8672H392.593L385.993 59.8672H406.693L404.793 71.0672H370.193Z" fill="#836EF9"/>
<path d="M328.87 71.0672H313.87L339.27 19.8672H358.27L366.67 71.0672H351.67L346.67 33.9672H346.27L328.87 71.0672ZM329.47 50.8672H357.67L355.87 61.2672H327.67L329.47 50.8672Z" fill="#836EF9"/>
<path d="M318.891 19.8672L310.391 71.0672H296.491L304.991 19.8672H318.891Z" fill="#836EF9"/>
<path d="M266.268 71.0672H246.268L254.768 19.8672H273.968C279.234 19.8672 283.634 20.9255 287.168 23.0422C290.701 25.1589 293.209 28.1839 294.693 32.1172C296.176 36.0505 296.468 40.7339 295.568 46.1672C294.701 51.4005 292.943 55.8755 290.293 59.5922C287.659 63.3089 284.293 66.1505 280.193 68.1172C276.109 70.0839 271.468 71.0672 266.268 71.0672ZM262.118 59.2672H267.168C269.701 59.2672 271.959 58.8255 273.943 57.9422C275.943 57.0422 277.609 55.5422 278.943 53.4422C280.293 51.3255 281.268 48.4339 281.868 44.7672C282.434 41.3005 282.418 38.6255 281.818 36.7422C281.218 34.8422 280.076 33.5255 278.393 32.7922C276.709 32.0422 274.534 31.6672 271.868 31.6672H266.718L262.118 59.2672Z" fill="#836EF9"/>
<path d="M24.3184 49.0714V20.6406H32.0369V42.8522H43.5314V49.0714H24.3184Z" fill="#836EF9"/>
<path d="M0 49.0714V20.6406H20.4902V26.8599H7.71852V31.7464H19.4351V37.9657H7.71852V42.8522H20.4347V49.0714H0Z" fill="#836EF9"/>
<path d="M49.1675 15.0703C49.1675 9.54747 53.6446 5.07031 59.1675 5.07031H246.167C251.69 5.07031 256.167 9.54747 256.167 15.0703V77.0703C256.167 82.5932 251.69 87.0703 246.167 87.0703H59.1675C53.6446 87.0703 49.1675 82.5932 49.1675 77.0703V15.0703Z" fill="#836EF9"/>
<path d="M70.7676 18.8672H88.0676L95.1676 47.8672H95.7676L112.468 18.8672H129.768L121.268 70.0672H107.668L112.568 40.4672H112.168L95.9676 69.6672H87.7676L81.2676 40.2672H80.8676L75.8676 70.0672H62.2676L70.7676 18.8672Z" fill="white"/>
<path d="M240.967 18.8672L232.467 70.0672H220.867L206.867 43.1672H206.567L202.067 70.0672H188.167L196.667 18.8672H208.467L222.267 45.6672H222.667L227.067 18.8672H240.967Z" fill="white"/>
<path d="M141.516 57.1663L152.641 63.9638M141.516 57.1663L144.948 44.8225M141.516 57.1663L133.373 59.8806M152.641 63.9638L161.534 55.4413M152.641 63.9638L156.367 74.0998M161.534 55.4413L156.6 43.4141M161.534 55.4413L174.408 56.9416M156.6 43.4141L144.948 44.8225M156.6 43.4141L163.654 32.6321M144.948 44.8225L138.144 34.1595M138.144 34.1595L145.467 23.169M138.144 34.1595L127.958 38.4584M145.467 23.169L157.916 22.3431M145.467 23.169L142.635 17.7389M157.916 22.3431L163.654 32.6321M157.916 22.3431L166.115 15.8146M163.654 32.6321L176.713 32.7042M176.713 32.7042L182.487 44.5938M176.713 32.7042L177.966 22.9923M182.487 44.5938L174.408 56.9416M182.487 44.5938L191.048 47.6389M174.408 56.9416L179.118 66.571M179.118 66.571L183.532 65.3772M179.118 66.571L174.604 72.2991M156.367 74.0998L165.618 75.9246M156.367 74.0998L152.576 76.0964M133.373 59.8806L128.043 51.6739M133.373 59.8806L134.129 64.5212M166.115 15.8146L164.832 13.382M166.115 15.8146L177.966 22.9923M177.966 22.9923L181.593 21.8943" stroke="white" stroke-width="2.50731"/>
<circle cx="159.33" cy="44.8557" r="31.9682" transform="rotate(-37.7876 159.33 44.8557)" stroke="white" stroke-width="2.50731"/>
<path d="M156.781 43.2457L145.201 44.6314L141.499 56.9922L152.408 63.7184L160.577 55.4865L156.781 43.2457Z" fill="white"/>
<path d="M158.041 22.0228L163.813 32.7317L176.618 32.9267L177.466 23.4119L165.944 15.8955L158.041 22.0228Z" fill="white"/>
<path d="M182.301 44.3371L174.301 56.8669C174.752 57.9931 176.005 60.8601 177.405 63.318C179.154 66.3904 178.098 69.1076 184.025 64.5121C188.766 60.8357 190.695 52.1704 191.066 48.2973L182.301 44.3371Z" fill="white"/>
<path d="M145.849 22.6182L137.631 34.0512L128.591 37.8965C130.612 24.1824 138.692 19.099 142.479 18.2716L145.849 22.6182Z" fill="white"/>
</svg>
