<svg width="207" height="82" viewBox="0 0 207 82" fill="none" xmlns="http://www.w3.org/2000/svg">
<rect width="207" height="82" rx="10" fill="white"/>
<path d="M21.6001 13.7969H38.9001L46.0001 42.7969H46.6001L63.3001 13.7969H80.6001L72.1001 64.9969H58.5001L63.4001 35.3969H63.0001L46.8001 64.5969H38.6001L32.1001 35.1969H31.7001L26.7001 64.9969H13.1001L21.6001 13.7969Z" fill="#836EF9"/>
<path d="M191.8 13.7969L183.3 64.9969H171.7L157.7 38.0969H157.4L152.9 64.9969H139L147.5 13.7969H159.3L173.1 40.5969H173.5L177.9 13.7969H191.8Z" fill="#836EF9"/>
<path d="M88.4074 38.645L93.035 50.8342M88.4074 38.645L98.6833 30.9928M88.4074 38.645L80.3092 35.8008M93.035 50.8342L105.284 49.5475M93.035 50.8342L89.7685 61.1273M105.284 49.5475L108.755 37.0197M105.284 49.5475L114.54 58.6217M108.755 37.0197L98.6833 30.9928M108.755 37.0197L120.936 32.8212M98.6833 30.9928L99.8402 18.3973M99.8402 18.3973L112.362 14.1988M99.8402 18.3973L89.156 15.5531M112.362 14.1988L122.706 21.1737M112.362 14.1988L113.451 8.17188M122.706 21.1737L120.936 32.8212M122.706 21.1737L133.186 21.0383M120.936 32.8212L131.212 40.8796M131.212 40.8796L128.49 53.8138M131.212 40.8796L138.154 33.9724M128.49 53.8138L114.54 58.6217M128.49 53.8138L133.39 61.4659M114.54 58.6217L112.362 69.118M112.362 69.118L116.581 70.8787M112.362 69.118L105.284 70.8787M89.7685 61.1273L95.9613 68.2377M89.7685 61.1273L85.5492 60.3824M80.3092 35.8008L81.1258 26.0494M80.3092 35.8008L78.0635 39.9316M133.186 21.0383L133.662 18.3296M133.186 21.0383L138.154 33.9724M138.154 33.9724L141.692 35.3268" stroke="#836EF9" stroke-width="2.50731"/>
<circle cx="110.032" cy="39.8276" r="31.9682" stroke="#836EF9" stroke-width="2.50731"/>
<path d="M109 36.9982L99 30.9982L88.5 38.4982L93 50.4982L104.5 48.9982L109 36.9982Z" fill="#836EF9"/>
<path d="M123 20.9982L121 32.9982L131 40.9982L137.5 33.9982L133 20.9982H123Z" fill="#836EF9"/>
<path d="M128.5 53.4982L114.5 58.4982C114.167 59.6649 113.4 62.6982 113 65.4982C112.5 68.9982 110 70.4982 117.5 70.4982C123.5 70.4982 130.333 64.8316 133 61.9982L128.5 53.4982Z" fill="#836EF9"/>
<path d="M113 13.9982L99.5 17.9982L90 15.4982C100 5.89823 109.5 6.83156 113 8.49823V13.9982Z" fill="#836EF9"/>
</svg>
